HIERARCHY
ROOT Hips
{
	OFFSET -339.306915 540.749023 89.171944
	CHANNELS 6 Xposition Yposition Zposition Zrotation Yrotation Xrotation
	JOINT Spine
	{
		OFFSET 0.000000 2.080078 8.814247
		CHANNELS 6 Xposition Yposition Zposition Zrotation Yrotation Xrotation
		JOINT Spine1
		{
			OFFSET 0.000000 0.000000 8.844139
			CHANNELS 6 Xposition Yposition Zposition Zrotation Yrotation Xrotation
			JOINT Spine2
			{
				OFFSET 0.000000 0.000000 11.682266
				CHANNELS 6 Xposition Yposition Zposition Zrotation Yrotation Xrotation
				JOINT Spine3
				{
					OFFSET 0.000000 0.000000 11.746696
					CHANNELS 6 Xposition Yposition Zposition Zrotation Yrotation Xrotation
					JOINT Neck
					{
						OFFSET 0.000000 0.000000 17.658264
						CHANNELS 6 Xposition Yposition Zposition Zrotation Yrotation Xrotation
						JOINT Neck1
						{
							OFFSET 0.000000 0.000000 5.101517
							CHANNELS 6 Xposition Yposition Zposition Zrotation Yrotation Xrotation
							JOINT Head
							{
								OFFSET 0.000000 0.000000 5.101517
								CHANNELS 6 Xposition Yposition Zposition Zrotation Yrotation Xrotation
								JOINT HeadEnd
								{
									OFFSET 0.000000 0.000000 11.655090
									CHANNELS 6 Xposition Yposition Zposition Zrotation Yrotation Xrotation
									End Site
									{
										OFFSET 0.000000 0.000000 0.100006
									}
								}
							}
						}
					}
					JOINT RightShoulder
					{
						OFFSET -2.625397 0.000000 11.175217
						CHANNELS 6 Xposition Yposition Zposition Zrotation Yrotation Xrotation
						JOINT RightArm
						{
							OFFSET 0.000000 0.000000 10.434708
							CHANNELS 6 Xposition Yposition Zposition Zrotation Yrotation Xrotation
							JOINT RightForeArm
							{
								OFFSET 0.000000 0.000000 29.628418
								CHANNELS 6 Xposition Yposition Zposition Zrotation Yrotation Xrotation
								JOINT RightHand
								{
									OFFSET 0.000000 0.000000 22.857605
									CHANNELS 6 Xposition Yposition Zposition Zrotation Yrotation Xrotation
									JOINT RightHandThumb1
									{
										OFFSET -2.867310 -2.944275 3.959564
										CHANNELS 6 Xposition Yposition Zposition Zrotation Yrotation Xrotation
										JOINT RightHandThumb2
										{
											OFFSET 0.000000 0.000000 3.350403
											CHANNELS 6 Xposition Yposition Zposition Zrotation Yrotation Xrotation
											JOINT RightHandThumb3
											{
												OFFSET 0.000000 0.000000 3.756516
												CHANNELS 6 Xposition Yposition Zposition Zrotation Yrotation Xrotation
												JOINT RightHandThumb4
												{
													OFFSET 0.000000 0.000000 3.147339
													CHANNELS 6 Xposition Yposition Zposition Zrotation Yrotation Xrotation
													End Site
													{
														OFFSET 0.000000 0.000000 0.100006
													}
												}
											}
										}
									}
									JOINT RightHandIndex1
									{
										OFFSET -0.086761 -2.345276 10.030899
										CHANNELS 6 Xposition Yposition Zposition Zrotation Yrotation Xrotation
										JOINT RightHandIndex2
										{
											OFFSET 0.000000 0.000000 4.061096
											CHANNELS 6 Xposition Yposition Zposition Zrotation Yrotation Xrotation
											JOINT RightHandIndex3
											{
												OFFSET 0.000000 0.000000 3.248871
												CHANNELS 6 Xposition Yposition Zposition Zrotation Yrotation Xrotation
												JOINT RightHandIndex4
												{
													OFFSET 0.000000 0.000000 2.639709
													CHANNELS 6 Xposition Yposition Zposition Zrotation Yrotation Xrotation
													End Site
													{
														OFFSET 0.000000 0.000000 0.100006
													}
												}
											}
										}
									}
									JOINT RightHandMiddle1
									{
										OFFSET 0.104095 -0.006775 9.502945
										CHANNELS 6 Xposition Yposition Zposition Zrotation Yrotation Xrotation
										JOINT RightHandMiddle2
										{
											OFFSET 0.000000 0.000000 4.568726
											CHANNELS 6 Xposition Yposition Zposition Zrotation Yrotation Xrotation
											JOINT RightHandMiddle3
											{
												OFFSET 0.000000 0.000000 3.654984
												CHANNELS 6 Xposition Yposition Zposition Zrotation Yrotation Xrotation
												JOINT RightHandMiddle4
												{
													OFFSET 0.000000 0.000000 2.741241
													CHANNELS 6 Xposition Yposition Zposition Zrotation Yrotation Xrotation
													End Site
													{
														OFFSET 0.000000 0.000000 0.100006
													}
												}
											}
										}
									}
									JOINT RightHandRing1
									{
										OFFSET 0.086761 2.267456 8.921707
										CHANNELS 6 Xposition Yposition Zposition Zrotation Yrotation Xrotation
										JOINT RightHandRing2
										{
											OFFSET 0.000000 0.000000 4.061096
											CHANNELS 6 Xposition Yposition Zposition Zrotation Yrotation Xrotation
											JOINT RightHandRing3
											{
												OFFSET 0.000000 0.000000 3.654984
												CHANNELS 6 Xposition Yposition Zposition Zrotation Yrotation Xrotation
												JOINT RightHandRing4
												{
													OFFSET 0.000000 0.000000 2.741241
													CHANNELS 6 Xposition Yposition Zposition Zrotation Yrotation Xrotation
													End Site
													{
														OFFSET 0.000000 0.000000 0.100006
													}
												}
											}
										}
									}
									JOINT RightHandPinky1
									{
										OFFSET -0.173492 4.467224 7.976990
										CHANNELS 6 Xposition Yposition Zposition Zrotation Yrotation Xrotation
										JOINT RightHandPinky2
										{
											OFFSET 0.000000 0.000000 3.350403
											CHANNELS 6 Xposition Yposition Zposition Zrotation Yrotation Xrotation
											JOINT RightHandPinky3
											{
												OFFSET 0.000000 0.000000 2.842758
												CHANNELS 6 Xposition Yposition Zposition Zrotation Yrotation Xrotation
												JOINT RightHandPinky4
												{
													OFFSET 0.000000 0.000000 2.639709
													CHANNELS 6 Xposition Yposition Zposition Zrotation Yrotation Xrotation
													End Site
													{
														OFFSET 0.000000 0.000000 0.100006
													}
												}
											}
										}
									}
									JOINT RightForeArmEnd
									{
										OFFSET 0.000000 0.000000 0.000000
										CHANNELS 6 Xposition Yposition Zposition Zrotation Yrotation Xrotation
										End Site
										{
											OFFSET 0.000000 0.000000 0.100006
										}
									}
								}
								JOINT RightArmEnd
								{
									OFFSET 0.000000 0.000000 0.000000
									CHANNELS 6 Xposition Yposition Zposition Zrotation Yrotation Xrotation
									End Site
									{
										OFFSET 0.000000 0.000000 0.100006
									}
								}
							}
						}
					}
					JOINT LeftShoulder
					{
						OFFSET 2.625397 0.000000 11.175217
						CHANNELS 6 Xposition Yposition Zposition Zrotation Yrotation Xrotation
						JOINT LeftArm
						{
							OFFSET 0.000000 0.000000 10.813629
							CHANNELS 6 Xposition Yposition Zposition Zrotation Yrotation Xrotation
							JOINT LeftForeArm
							{
								OFFSET 0.000000 0.000000 28.724777
								CHANNELS 6 Xposition Yposition Zposition Zrotation Yrotation Xrotation
								JOINT LeftHand
								{
									OFFSET 0.644379 0.328857 25.716171
									CHANNELS 6 Xposition Yposition Zposition Zrotation Yrotation Xrotation
									JOINT LeftHandThumb1
									{
										OFFSET 2.867310 -2.944275 3.959564
										CHANNELS 6 Xposition Yposition Zposition Zrotation Yrotation Xrotation
										JOINT LeftHandThumb2
										{
											OFFSET 0.000000 0.000000 3.350403
											CHANNELS 6 Xposition Yposition Zposition Zrotation Yrotation Xrotation
											JOINT LeftHandThumb3
											{
												OFFSET 0.000000 0.000000 3.756516
												CHANNELS 6 Xposition Yposition Zposition Zrotation Yrotation Xrotation
												JOINT LeftHandThumb4
												{
													OFFSET 0.000000 0.000000 3.100006
													CHANNELS 6 Xposition Yposition Zposition Zrotation Yrotation Xrotation
													End Site
													{
														OFFSET 0.000000 0.000000 0.100006
													}
												}
											}
										}
									}
									JOINT LeftHandIndex1
									{
										OFFSET 0.086761 -2.345276 10.030899
										CHANNELS 6 Xposition Yposition Zposition Zrotation Yrotation Xrotation
										JOINT LeftHandIndex2
										{
											OFFSET 0.000000 0.000000 4.061096
											CHANNELS 6 Xposition Yposition Zposition Zrotation Yrotation Xrotation
											JOINT LeftHandIndex3
											{
												OFFSET 0.000000 0.000000 3.248871
												CHANNELS 6 Xposition Yposition Zposition Zrotation Yrotation Xrotation
												JOINT LeftHandIndex4
												{
													OFFSET 0.000000 0.000000 2.639709
													CHANNELS 6 Xposition Yposition Zposition Zrotation Yrotation Xrotation
													End Site
													{
														OFFSET 0.000000 0.000000 0.100006
													}
												}
											}
										}
									}
									JOINT LeftHandMiddle1
									{
										OFFSET -0.104095 -0.006775 9.502945
										CHANNELS 6 Xposition Yposition Zposition Zrotation Yrotation Xrotation
										JOINT LeftHandMiddle2
										{
											OFFSET 0.000000 0.000000 4.568726
											CHANNELS 6 Xposition Yposition Zposition Zrotation Yrotation Xrotation
											JOINT LeftHandMiddle3
											{
												OFFSET 0.000000 0.000000 3.654984
												CHANNELS 6 Xposition Yposition Zposition Zrotation Yrotation Xrotation
												JOINT LeftHandMiddle4
												{
													OFFSET 0.000000 0.000000 2.741241
													CHANNELS 6 Xposition Yposition Zposition Zrotation Yrotation Xrotation
													End Site
													{
														OFFSET 0.000000 0.000000 0.100006
													}
												}
											}
										}
									}
									JOINT LeftHandRing1
									{
										OFFSET -0.086761 2.267456 8.921707
										CHANNELS 6 Xposition Yposition Zposition Zrotation Yrotation Xrotation
										JOINT LeftHandRing2
										{
											OFFSET 0.000000 0.000000 4.061096
											CHANNELS 6 Xposition Yposition Zposition Zrotation Yrotation Xrotation
											JOINT LeftHandRing3
											{
												OFFSET 0.000000 0.000000 3.654984
												CHANNELS 6 Xposition Yposition Zposition Zrotation Yrotation Xrotation
												JOINT LeftHandRing4
												{
													OFFSET 0.000000 0.000000 2.741241
													CHANNELS 6 Xposition Yposition Zposition Zrotation Yrotation Xrotation
													End Site
													{
														OFFSET 0.000000 0.000000 0.100006
													}
												}
											}
										}
									}
									JOINT LeftHandPinky1
									{
										OFFSET 0.173492 4.467224 7.976990
										CHANNELS 6 Xposition Yposition Zposition Zrotation Yrotation Xrotation
										JOINT LeftHandPinky2
										{
											OFFSET 0.000000 0.000000 3.350403
											CHANNELS 6 Xposition Yposition Zposition Zrotation Yrotation Xrotation
											JOINT LeftHandPinky3
											{
												OFFSET 0.000000 0.000000 2.842758
												CHANNELS 6 Xposition Yposition Zposition Zrotation Yrotation Xrotation
												JOINT LeftHandPinky4
												{
													OFFSET 0.000000 0.000000 2.639709
													CHANNELS 6 Xposition Yposition Zposition Zrotation Yrotation Xrotation
													End Site
													{
														OFFSET 0.000000 0.000000 0.100006
													}
												}
											}
										}
									}
									JOINT LeftForeArmEnd
									{
										OFFSET 0.000000 0.000000 0.000000
										CHANNELS 6 Xposition Yposition Zposition Zrotation Yrotation Xrotation
										End Site
										{
											OFFSET 0.000000 0.000000 0.100006
										}
									}
								}
								JOINT LeftArmEnd
								{
									OFFSET 0.000000 0.000000 0.000000
									CHANNELS 6 Xposition Yposition Zposition Zrotation Yrotation Xrotation
									End Site
									{
										OFFSET 0.000000 0.000000 0.100006
									}
								}
							}
						}
					}
				}
			}
		}
	}
	JOINT RightUpLeg
	{
		OFFSET -11.289948 0.000000 0.000000
		CHANNELS 6 Xposition Yposition Zposition Zrotation Yrotation Xrotation
		JOINT RightLeg
		{
			OFFSET 0.000000 0.000000 -38.200329
			CHANNELS 6 Xposition Yposition Zposition Zrotation Yrotation Xrotation
			JOINT RightFoot
			{
				OFFSET 0.000000 0.000000 -39.900856
				CHANNELS 6 Xposition Yposition Zposition Zrotation Yrotation Xrotation
				JOINT RightToeBase
				{
					OFFSET 0.000000 -15.261658 0.000001
					CHANNELS 6 Xposition Yposition Zposition Zrotation Yrotation Xrotation
					JOINT RightToeBaseEnd
					{
						OFFSET 0.000000 -7.370728 0.000001
						CHANNELS 6 Xposition Yposition Zposition Zrotation Yrotation Xrotation
						End Site
						{
							OFFSET 0.000000 0.000000 0.100000
						}
					}
				}
				JOINT RightLegEnd
				{
					OFFSET 0.000000 0.000000 0.000000
					CHANNELS 6 Xposition Yposition Zposition Zrotation Yrotation Xrotation
					End Site
					{
						OFFSET 0.000000 0.000000 0.100000
					}
				}
			}
			JOINT RightUpLegEnd
			{
				OFFSET 0.000000 0.000000 0.000000
				CHANNELS 6 Xposition Yposition Zposition Zrotation Yrotation Xrotation
				End Site
				{
					OFFSET 0.000000 0.000000 0.099998
				}
			}
		}
	}
	JOINT LeftUpLeg
	{
		OFFSET 11.315674 0.000000 0.000000
		CHANNELS 6 Xposition Yposition Zposition Zrotation Yrotation Xrotation
		JOINT LeftLeg
		{
			OFFSET 0.000000 0.000000 -38.200329
			CHANNELS 6 Xposition Yposition Zposition Zrotation Yrotation Xrotation
			JOINT LeftFoot
			{
				OFFSET 0.000000 0.000000 -39.900856
				CHANNELS 6 Xposition Yposition Zposition Zrotation Yrotation Xrotation
				JOINT LeftToeBase
				{
					OFFSET 0.000000 -15.261658 0.000001
					CHANNELS 6 Xposition Yposition Zposition Zrotation Yrotation Xrotation
					JOINT LeftToeBaseEnd
					{
						OFFSET 0.000000 -7.539978 0.000001
						CHANNELS 6 Xposition Yposition Zposition Zrotation Yrotation Xrotation
						End Site
						{
							OFFSET 0.000000 0.000000 0.100000
						}
					}
				}
				JOINT LeftLegEnd
				{
					OFFSET 0.000000 0.000000 0.000000
					CHANNELS 6 Xposition Yposition Zposition Zrotation Yrotation Xrotation
					End Site
					{
						OFFSET 0.000000 0.000000 0.100000
					}
				}
			}
			JOINT LeftUpLegEnd
			{
				OFFSET 0.000000 0.000000 0.000000
				CHANNELS 6 Xposition Yposition Zposition Zrotation Yrotation Xrotation
				End Site
				{
					OFFSET 0.000000 0.000000 0.099998
				}
			}
		}
	}
}
MOTION
Frames: 2
Frame Time: 0.016667
40.342072 -62.452820 85.321907 -4.923227 -1.611087 -13.977208 -0.000005 2.080083 8.814234 0.746439 2.936980 11.303522 0.000020 -0.000000 8.844154 0.525487 0.455334 5.172553 -0.000013 0.000010 11.682266 5.110307 1.556858 8.044191 -0.000031 0.000007 11.746712 1.677545 3.041108 7.361522 0.000007 -0.000003 17.658283 -8.394834 0.946327 -0.165650 0.000003 0.000024 5.101528 -11.712145 3.145529 -6.203144 0.000001 -0.000013 5.101520 0.263186 -0.791258 -15.741633 -0.000032 -0.000001 11.655088 0.000000 0.000000 -0.000000 -2.625404 0.000007 11.175230 14.266523 -79.471785 0.676143 0.000008 -0.000015 10.434710 -53.496712 -38.742274 75.821698 0.000004 -0.000023 29.628477 10.236368 0.175941 28.743294 -0.000005 -0.000009 22.857588 5.285354 3.419287 -3.397369 -2.867330 -2.944260 3.959579 32.486907 -26.400051 38.690559 0.000008 0.000000 3.350449 -32.871177 10.485716 -55.441759 0.000000 0.000023 3.756523 -21.866968 10.798273 -37.858878 -0.000007 0.000003 3.147346 0.000002 0.000000 -0.000001 -0.086769 -2.345296 10.030946 -12.397426 -82.289532 -0.061471 -0.000008 0.000004 4.061111 6.794629 -58.156308 -13.078322 0.000019 0.000010 3.248894 7.294665 -58.156274 -13.078351 0.000004 0.000011 2.639727 -0.000000 0.000000 -0.000000 0.104092 -0.006786 9.502953 -41.541272 -80.239915 34.167820 0.000004 0.000020 4.568722 2.185725 -58.111891 -4.832064 0.000021 0.000016 3.654970 2.685741 -58.111891 -4.832083 -0.000002 -0.000013 2.741262 0.000001 0.000000 0.000002 0.086759 2.267473 8.921711 79.491681 -104.741060 -78.736454 0.000002 -0.000020 4.061079 -3.709451 -64.688865 7.430594 -0.000002 -0.000010 3.654991 -4.709516 -64.688851 7.430660 0.000036 0.000007 2.741239 -0.000001 -0.000000 -0.000000 -0.173491 4.467220 7.976994 78.897742 -113.163879 -67.063592 -0.000015 0.000061 3.350418 -14.375866 -65.483230 25.226539 -0.000015 0.000031 2.842796 -16.375841 -65.483196 25.226499 -0.000010 0.000007 2.639713 -0.000002 -0.000002 -0.000003 -0.000007 -0.000016 -0.000016 0.000003 0.000001 -0.000000 0.000014 0.000015 0.000008 -0.000002 -0.000001 0.000000 2.625389 -0.000020 11.175201 -14.140793 85.706771 -0.311616 0.000023 -0.000006 10.813641 48.812579 58.120416 48.199183 -0.000015 -0.000008 28.724770 -27.035291 2.882950 32.028871 0.644325 0.328815 25.716196 -34.344356 0.625901 -4.787394 2.867315 -2.944244 3.959579 -31.729852 22.942039 43.364219 -0.000008 0.000000 3.350372 25.337430 -11.058759 -43.400641 -0.000015 0.000008 3.756516 16.725400 -9.787729 -29.562158 0.000012 -0.000014 3.100023 0.000002 0.000001 -0.000000 0.086800 -2.345287 10.030876 33.324022 57.235155 26.862763 0.000006 -0.000011 4.061089 2.421302 42.728492 7.459034 -0.000017 0.000001 3.248875 2.921274 42.728441 7.458994 0.000038 0.000001 2.639744 -0.000001 -0.000002 -0.000003 -0.104107 -0.006779 9.502930 22.480678 56.794785 20.632004 0.000005 0.000030 4.568754 0.505617 41.452063 2.655458 0.000042 0.000001 3.655012 1.005378 41.452128 2.655101 -0.000008 0.000068 2.741276 0.000000 -0.000001 0.000001 -0.086750 2.267448 8.921715 8.817887 60.917248 15.205323 0.000029 0.000020 4.061100 -0.256704 42.592172 -3.223240 0.000018 -0.000003 3.655003 -1.256720 42.592230 -3.223249 0.000010 -0.000003 2.741245 0.000002 0.000001 0.000000 0.173523 4.467215 7.977001 -8.521557 61.580268 6.560234 0.000008 -0.000038 3.350441 -1.516033 40.425042 -9.530797 -0.000004 -0.000020 2.842766 -3.516012 40.425134 -9.530791 0.000033 -0.000002 2.639715 0.000001 -0.000001 -0.000002 0.000038 -0.000009 -0.000000 0.000002 -0.000000 0.000000 -0.000007 0.000022 0.000032 -0.000003 0.000001 -0.000002 -11.289957 -0.000003 0.000000 12.019636 3.885968 -2.270281 -0.000000 0.000032 -38.200329 -0.570962 0.457204 38.684521 0.000005 0.000041 -39.900848 -4.275229 -1.612484 6.544489 0.000007 -15.261652 -0.000016 1.014536 0.377059 -22.456991 0.000000 -7.370666 0.000000 -0.000000 0.000000 0.000000 -0.000004 0.000060 -0.000005 0.000000 -0.000000 0.000001 0.000003 -0.000001 0.000000 0.000000 0.000000 0.000000 11.315643 0.000052 0.000007 4.631684 0.120743 -0.260826 -0.000023 0.000178 -38.200279 0.311605 -0.213073 34.363327 -0.000013 -0.000009 -39.900848 10.188726 2.701707 7.003880 0.000012 -15.261644 0.000023 -1.138338 -0.787842 -17.824089 -0.000003 -7.539975 0.000003 -0.000001 -0.000000 -0.000000 0.000004 -0.000061 0.000004 -0.000000 0.000000 -0.000002 -0.000000 0.000062 0.000006 0.000000 -0.000000 -0.000000 
40.419098 -62.421692 84.979675 -5.656181 -1.837840 -14.407485 0.000002 2.080070 8.814245 0.749138 2.993636 11.766430 0.000014 -0.000006 8.844149 0.551963 0.493953 5.328479 -0.000011 -0.000008 11.682277 5.262591 1.534578 8.311386 -0.000002 -0.000007 11.746704 1.770682 2.837688 7.492522 -0.000004 0.000022 17.658260 -7.203606 1.054615 -1.421362 0.000011 0.000019 5.101509 -10.460991 2.842390 -6.806544 -0.000002 -0.000005 5.101544 0.346997 -0.684820 -16.189210 -0.000014 -0.000002 11.655083 0.000000 -0.000002 0.000000 -2.625423 0.000011 11.175220 14.124875 -79.864268 0.691080 0.000008 -0.000023 10.434708 -52.089075 -42.921424 74.225592 -0.000025 0.000004 29.628466 10.648911 0.165041 28.236627 -0.000044 0.000025 22.857580 8.893724 2.992489 -2.788107 -2.867379 -2.944244 3.959579 32.376528 -26.012282 39.209818 -0.000008 0.000015 3.350395 -32.043249 10.625952 -54.110541 -0.000015 0.000015 3.756538 -21.288238 10.722390 -36.931639 0.000010 0.000000 3.147344 -0.000001 -0.000000 -0.000001 -0.086792 -2.345278 10.030911 -8.243772 -79.083175 -3.597949 -0.000015 0.000021 4.061081 5.876770 -55.908944 -11.984523 -0.000011 -0.000023 3.248863 6.376779 -55.908899 -11.984537 -0.000001 0.000058 2.639692 0.000001 0.000001 -0.000001 0.104053 -0.006769 9.502937 -31.491919 -77.734868 24.339854 -0.000017 -0.000009 4.568722 1.859361 -55.921378 -4.443058 -0.000009 0.000010 3.654980 2.359379 -55.921375 -4.443069 -0.000000 0.000053 2.741268 0.000001 0.000002 0.000002 0.086744 2.267447 8.921703 91.413777 -104.504278 -91.163798 0.000000 0.000024 4.061096 -3.112110 -62.557279 6.763969 0.000029 -0.000031 3.654974 -4.112092 -62.557286 6.763950 0.000023 -0.000002 2.741225 0.000000 0.000000 -0.000000 -0.173513 4.467232 7.976978 85.467714 -112.872715 -75.248706 -0.000031 -0.000023 3.350433 -12.419384 -63.606949 23.060035 -0.000019 -0.000084 2.842751 -14.419354 -63.606922 23.060020 -0.000002 0.000002 2.639704 -0.000001 -0.000000 -0.000000 -0.000033 -0.000013 0.000001 -0.000001 -0.000002 -0.000003 -0.000012 0.000010 -0.000000 -0.000001 -0.000002 -0.000000 2.625399 0.000009 11.175232 -13.997835 85.813021 -0.341629 0.000019 0.000006 10.813675 43.434553 61.527334 44.164126 -0.000023 -0.000046 28.724716 -26.170278 2.186628 33.559028 0.644330 0.328897 25.716173 -40.845942 1.212681 -4.920933 2.867319 -2.944260 3.959579 -31.729852 22.942062 43.364215 0.000015 0.000023 3.350410 25.337468 -11.058776 -43.400600 -0.000023 0.000008 3.756493 16.725402 -9.787706 -29.562175 0.000013 -0.000024 3.100017 0.000004 0.000000 0.000001 0.086761 -2.345284 10.030876 33.077985 57.016196 27.210352 -0.000002 0.000007 4.061142 2.400271 42.610169 7.427996 0.000015 0.000001 3.248886 2.900246 42.610166 7.427990 0.000011 0.000008 2.639737 -0.000001 -0.000003 -0.000003 -0.104107 -0.006764 9.502983 22.457023 56.760969 21.198631 0.000013 0.000011 4.568729 0.504035 41.451841 2.653063 0.000004 0.000009 3.655001 1.004047 41.451868 2.653068 0.000003 -0.000005 2.741254 0.000001 -0.000000 -0.000002 -0.086723 2.267443 8.921745 9.014026 61.331479 15.859426 0.000013 0.000029 4.061111 -0.277444 42.861377 -3.253790 0.000014 0.000026 3.654993 -1.277467 42.861404 -3.253808 -0.000015 0.000005 2.741260 -0.000001 -0.000001 -0.000001 0.173538 4.467237 7.976971 -8.551940 62.295901 6.933378 0.000000 -0.000049 3.350380 -1.607971 40.837571 -9.672006 -0.000013 0.000020 2.842743 -3.607967 40.837568 -9.671965 -0.000005 -0.000007 2.639717 0.000002 -0.000002 0.000001 0.000009 0.000012 0.000030 0.000000 -0.000001 -0.000002 0.000000 0.000005 0.000034 0.000000 0.000001 -0.000001 -11.289972 0.000072 0.000006 12.220437 4.139324 -2.876014 -0.000006 0.000072 -38.200302 -0.586372 0.499508 40.424444 -0.000002 0.000053 -39.900856 -3.657791 -1.745039 5.943294 -0.000008 -15.261662 -0.000012 1.030553 0.401713 -22.404948 0.000000 -7.370667 0.000000 -0.000000 0.000000 0.000000 0.000001 0.000062 0.000000 -0.000000 0.000000 0.000001 0.000001 -0.000001 -0.000012 0.000000 0.000000 0.000002 11.315637 0.000062 -0.000003 5.192777 0.235681 -0.345234 -0.000014 0.000031 -38.200310 0.280305 -0.200866 35.624870 -0.000029 -0.000001 -39.900867 10.428583 2.860126 6.182598 0.000005 -15.261661 0.000015 -1.185097 -0.736761 -17.574966 -0.000008 -7.539908 0.000004 -0.000002 -0.000000 -0.000000 -0.000008 -0.000063 0.000004 0.000000 0.000000 -0.000001 0.000000 -0.000001 -0.000006 0.000000 0.000000 -0.000001 
